<svg xmlns="http://www.w3.org/2000/svg" viewBox="0 0 1280 1026.37"><defs><style>.cls-1{fill:none;}.cls-2{fill:#fff;}</style></defs><title>owl_logo</title><g id="Layer_10" data-name="Layer 10"><rect class="cls-1" width="1280" height="1026.37"/></g><g id="OWL_Color"><path class="cls-2" d="M1006.33,367.37q.48,9.24.49,18.59c0,195-158.1,353.12-353.12,353.12S300.57,581,300.57,386c0-4.6.12-9.17.3-13.73a187.42,187.42,0,0,0,149,73.49c82.58,0,152.66-53.34,177.8-127.43l1.24.7,24.84,14,24.83-14,2.69-1.52a187.78,187.78,0,0,0,325.11,49.9ZM220.53,31,653.7,274.83,1086.86,31ZM525,323.57V265.43A40.54,40.54,0,0,0,484.57,225h-.14A40.54,40.54,0,0,0,444,265.43v58.14A40.54,40.54,0,0,0,484.43,364h.14A40.54,40.54,0,0,0,525,323.57Zm339,0V265.43A40.54,40.54,0,0,0,823.57,225h-.14A40.54,40.54,0,0,0,783,265.43v58.15A40.54,40.54,0,0,0,823.43,364h.14A40.54,40.54,0,0,0,864,323.57Z"/></g><g id="Layer_4" data-name="Layer 4"><path class="cls-2" d="M213.49,895.36a19.46,19.46,0,0,1,10.35-2.84v6.85q-7.38-.09-11.88,4.09t-5.13,11.47v25.2h-7V892.79h7v10.54A17.74,17.74,0,0,1,213.49,895.36Z"/><path class="cls-2" d="M270.28,895.54a21.48,21.48,0,0,1,8.55,8.46,26.63,26.63,0,0,1,0,24.79,21.57,21.57,0,0,1-8.55,8.55,26.82,26.82,0,0,1-24.88,0,21.8,21.8,0,0,1-8.51-8.5,26.74,26.74,0,0,1,0-24.84,21.57,21.57,0,0,1,8.51-8.46,27.13,27.13,0,0,1,24.88,0ZM249,901a15.67,15.67,0,0,0-6,6.31,19.13,19.13,0,0,0-2.16,9.17,19.34,19.34,0,0,0,2.16,9.27,15.67,15.67,0,0,0,6,6.31,18.41,18.41,0,0,0,17.64,0,15.67,15.67,0,0,0,6-6.31,19.34,19.34,0,0,0,2.16-9.27,19.13,19.13,0,0,0-2.16-9.17,15.57,15.57,0,0,0-6.07-6.31,18.33,18.33,0,0,0-17.6,0Z"/><path class="cls-2" d="M337.11,895.58a21.16,21.16,0,0,1,8.05,8.51,28.44,28.44,0,0,1,0,24.84,20.66,20.66,0,0,1-8,8.46,22.83,22.83,0,0,1-11.79,3,21.53,21.53,0,0,1-11-2.74A19.46,19.46,0,0,1,307,930v10.17h-7V873.35h7V903a19.57,19.57,0,0,1,7.43-7.69,21.18,21.18,0,0,1,10.84-2.75A22.92,22.92,0,0,1,337.11,895.58Zm-4.37,36.32a16,16,0,0,0,6-6.35,20.48,20.48,0,0,0,0-18.31,15.88,15.88,0,0,0-6-6.39,16.79,16.79,0,0,0-8.73-2.3,17,17,0,0,0-8.82,2.3,16,16,0,0,0-6,6.34,20.59,20.59,0,0,0,0,18.36,16,16,0,0,0,6,6.35,17,17,0,0,0,8.82,2.29A16.78,16.78,0,0,0,332.74,931.9Z"/><path class="cls-2" d="M401.37,899.68q5.72,7.16,5.17,19.4h-38.7a17.65,17.65,0,0,0,5.58,11.25A16.67,16.67,0,0,0,385,934.55a20.84,20.84,0,0,0,8.1-1.57,19.33,19.33,0,0,0,6.57-4.46l3.87,4.06a22.87,22.87,0,0,1-8.32,5.8,27.94,27.94,0,0,1-10.76,2,24.59,24.59,0,0,1-12.28-3,21.13,21.13,0,0,1-8.33-8.46,27.45,27.45,0,0,1,0-24.84,21.44,21.44,0,0,1,8.33-8.51,24.22,24.22,0,0,1,12.19-3.06Q395.65,892.52,401.37,899.68Zm-1.13,13.82q-.36-6.93-4.63-11t-11.21-4.09a16.2,16.2,0,0,0-11.34,4.09,16.64,16.64,0,0,0-5.22,11Z"/><path class="cls-2" d="M437.59,895.36a19.46,19.46,0,0,1,10.35-2.84v6.85q-7.38-.09-11.88,4.09t-5.13,11.47v25.2h-7V892.79h7v10.54A17.74,17.74,0,0,1,437.59,895.36Z"/><path class="cls-2" d="M487.18,936.89a19.52,19.52,0,0,1-10.89,3.51,11.42,11.42,0,0,1-8.64-3.37q-3.24-3.37-3.24-10V899.72h-6.84v-5.49h6.84V881.81h6.93v12.42h15v5.49h-15v26.11q0,4.23,1.58,6.16a5.72,5.72,0,0,0,4.72,1.93,16.52,16.52,0,0,0,7.56-2.42Z"/><path class="cls-2" d="M543.34,894a20.89,20.89,0,0,1,8,8.82A29.31,29.31,0,0,1,554.14,916a29,29,0,0,1-2.74,13,20.24,20.24,0,0,1-7.83,8.65,22.34,22.34,0,0,1-11.75,3,19.31,19.31,0,0,1-8.32-1.75,17.27,17.27,0,0,1-6.35-5.09v23.76h-16V891.44h16v6.31a17.18,17.18,0,0,1,14.31-6.85A22.49,22.49,0,0,1,543.34,894Zm-8.23,30.37a12.73,12.73,0,0,0,2.92-8.73,12.9,12.9,0,0,0-2.92-8.77,9.6,9.6,0,0,0-7.61-3.38,9.36,9.36,0,0,0-7.47,3.38,13,13,0,0,0-2.88,8.77,12.85,12.85,0,0,0,2.88,8.73,9.38,9.38,0,0,0,7.47,3.33A9.63,9.63,0,0,0,535.11,924.38Z"/><path class="cls-2" d="M605.35,895.45q5.58,4.63,5.67,13v31.67H595.27v-5.49q-4.86,6.23-14.67,6.21-7.74,0-12.19-4.18a14.42,14.42,0,0,1-4.46-11c0-4.61,1.61-8.22,4.82-10.8s7.81-3.89,13.81-4h12.69v-.54a6.5,6.5,0,0,0-2.38-5.4q-2.39-1.89-6.89-1.89a27.73,27.73,0,0,0-6.88,1,42.37,42.37,0,0,0-7.7,2.88L567,896.12a64.08,64.08,0,0,1,11.39-4,48.26,48.26,0,0,1,11.29-1.31Q599.77,890.81,605.35,895.45Zm-13.5,32.76a7.6,7.6,0,0,0,3.42-4.54v-4.24h-9.54c-4.5,0-6.75,1.69-6.75,5a5,5,0,0,0,1.76,4,7.21,7.21,0,0,0,4.81,1.48A11.3,11.3,0,0,0,591.85,928.21Z"/><path class="cls-2" d="M644.14,901.88a6.36,6.36,0,0,0-3.33.77,2.5,2.5,0,0,0-1.26,2.29,3,3,0,0,0,2,2.61,35,35,0,0,0,6.3,2.16,80.86,80.86,0,0,1,8.69,3,15.86,15.86,0,0,1,6,4.5A11.87,11.87,0,0,1,665,925.1a13.53,13.53,0,0,1-5.71,11.57q-5.71,4.19-14.9,4.18a40,40,0,0,1-11.88-1.75,31.27,31.27,0,0,1-10.08-5.18l5-10.34a35.57,35.57,0,0,0,8.69,4.45,26.24,26.24,0,0,0,8.59,1.57,7.8,7.8,0,0,0,3.74-.76,2.39,2.39,0,0,0,1.39-2.21,3.07,3.07,0,0,0-2-2.79,39.52,39.52,0,0,0-6.35-2.16,69.54,69.54,0,0,1-8.46-3,16,16,0,0,1-5.8-4.46,11.67,11.67,0,0,1-2.48-7.74,13.66,13.66,0,0,1,5.58-11.56q5.58-4.18,14.4-4.19a39,39,0,0,1,10.49,1.45,38.61,38.61,0,0,1,9.76,4.22l-5.4,10.44Q650.17,901.9,644.14,901.88Z"/><path class="cls-2" d="M728.11,873.35v66.78h-16v-6.3a16.36,16.36,0,0,1-6.16,5.18,18.77,18.77,0,0,1-8.24,1.75,22.24,22.24,0,0,1-11.88-3.14,21.18,21.18,0,0,1-8-8.87A29.29,29.29,0,0,1,675,915.56a28.68,28.68,0,0,1,2.79-13,20.65,20.65,0,0,1,7.83-8.64,22.19,22.19,0,0,1,11.7-3.06,19.06,19.06,0,0,1,8.42,1.81,17.93,17.93,0,0,1,6.34,5.12V873.35Zm-18.9,51.44a14.88,14.88,0,0,0,0-17.6,10.26,10.26,0,0,0-15.16,0,14.61,14.61,0,0,0,0,17.55,9.58,9.58,0,0,0,7.6,3.38A9.46,9.46,0,0,0,709.21,924.79Z"/><path class="cls-2" d="M743.86,891.44l42.66.1v9.71l-23.4,26.64h24.3v12.24H743.05v-9.71l23.4-26.65H743.86Z"/><path class="cls-2" d="M815.46,871.42a9.17,9.17,0,0,1,0,12.33,9,9,0,0,1-12.16,0,9.17,9.17,0,0,1,0-12.33,9,9,0,0,1,12.16,0Zm-14.09,20H817.3v48.69H801.37Z"/><path class="cls-2" d="M874.54,897.92q6.39,7,6.39,19.26c0,1.26,0,2.23-.09,2.88H847a11.68,11.68,0,0,0,4,6.35,11.21,11.21,0,0,0,7,2.21,15,15,0,0,0,6.07-1.27,17,17,0,0,0,5.36-3.68l8.37,8.37a24.69,24.69,0,0,1-9.14,6.43,31.52,31.52,0,0,1-12.1,2.2,29.11,29.11,0,0,1-13.68-3,21.25,21.25,0,0,1-9-8.65,26.19,26.19,0,0,1-3.1-13A26.88,26.88,0,0,1,834,902.83,21.75,21.75,0,0,1,843,894a27.64,27.64,0,0,1,13.32-3.11Q868.15,890.9,874.54,897.92Zm-9.18,13.59a9.38,9.38,0,0,0-2.48-6.79,8.65,8.65,0,0,0-6.52-2.57,8.75,8.75,0,0,0-6.35,2.52,12.56,12.56,0,0,0-3.37,6.84Z"/><path class="cls-2" d="M917,893.06a18.45,18.45,0,0,1,9.14-2.25v14.67c-.54-.05-1.35-.09-2.43-.09a14.82,14.82,0,0,0-9.18,2.66,10.17,10.17,0,0,0-4,7.24v24.84h-16V891.44h16v8.1A17.69,17.69,0,0,1,917,893.06Z"/><path class="cls-2" d="M983.39,895.85q4.82,5.05,4.82,13.59v30.69H972.28V914a9.14,9.14,0,0,0-2.25-6.53,7.9,7.9,0,0,0-6-2.39,9.34,9.34,0,0,0-6.53,2.61,10.65,10.65,0,0,0-3,6.66v25.74h-16V891.44h16v7.93a17.33,17.33,0,0,1,6.7-6.4,20,20,0,0,1,9.41-2.16C975.91,890.81,980.18,892.5,983.39,895.85Z"/><path class="cls-2" d="M1018.49,871.42a9.15,9.15,0,0,1,0,12.33,8.94,8.94,0,0,1-12.15,0,9.17,9.17,0,0,1,0-12.33,8.94,8.94,0,0,1,12.15,0Zm-14.08,20h15.93v48.69h-15.93Z"/><path class="cls-2" d="M1069.57,940.13l-10.26-18.36-5,5.13v13.23h-16V873.35h16v34.57l15.57-16.48h18.18l-17.82,18.81,18.18,29.88Z"/></g></svg>