<svg id="Layer_1" data-name="Layer 1" xmlns="http://www.w3.org/2000/svg" viewBox="0 0 1280 1026.37"><defs><style>.cls-1{fill:none;}.cls-2{fill:#ddfaff;}</style></defs><title>owl_logo_solo</title><rect class="cls-1" width="1280" height="1026.37"/><path class="cls-2" d="M888.53,474.54q.53,10.17.54,20.48c0,214.87-174.19,389.06-389.07,389.06S110.94,709.89,110.94,495c0-5.07.12-10.11.32-15.13a206.52,206.52,0,0,0,164.11,81c91,0,168.2-58.77,195.9-140.4l1.36.77L500,436.63l27.37-15.4,3-1.67a206.9,206.9,0,0,0,358.2,55ZM22.74,103.93,500,372.57,977.26,103.93ZM358.2,426.28V362.21a44.67,44.67,0,0,0-44.54-44.54h-.16A44.67,44.67,0,0,0,269,362.21v64.07a44.67,44.67,0,0,0,44.54,44.54h.16A44.67,44.67,0,0,0,358.2,426.28Zm373.51,0V362.21a44.67,44.67,0,0,0-44.54-44.54H687a44.67,44.67,0,0,0-44.54,44.54v64.07A44.67,44.67,0,0,0,687,470.82h.16A44.67,44.67,0,0,0,731.71,426.28Z" transform="translate(95)"/></svg>